<svg version="1.1" xmlns="http://www.w3.org/2000/svg" xmlns:xlink="http://www.w3.org/1999/xlink" width="716.58932" height="302.26032" viewBox="0,0,716.58932,302.26032"><g transform="translate(36.23988,-126.70304)"><g data-paper-data="{&quot;isPaintingLayer&quot;:true}" fill="#9966ff" fill-rule="nonzero" stroke="none" stroke-width="0.5" stroke-linecap="butt" stroke-linejoin="miter" stroke-miterlimit="10" stroke-dasharray="" stroke-dashoffset="0" style="mix-blend-mode: normal"><path d="M680.34944,136.67418c0,9.75 -9.75,9.75 -9.75,9.75h-3.003c-3.26904,0 -7.11598,-1.03976 -9.78235,0.75933c-6.96444,2.32148 -12.4383,7.51518 -19.50909,9.49036c-0.96409,0.26932 -2.01071,-0.13178 -3.003,0c-2.19425,0.2914 -3.4836,2.78498 -5.46392,3.77391c-3.81372,1.90448 -8.41714,2.69503 -12.22159,4.60393c-3.04562,1.52815 -6.18895,2.97208 -8.88369,5.05761c-1.11951,0.86642 -1.8569,2.17208 -3.00301,3.00301c-0.50568,0.36662 -1.37968,0.03311 -1.80963,0.48618c-0.77037,0.8118 -0.70801,2.21378 -1.5015,3.003c-0.93165,0.92663 -2.50975,0.99331 -3.44472,1.91657c-0.92075,0.90922 -1.087,2.38253 -1.91549,3.37654c-1.4448,1.73346 -3.07528,3.32749 -4.84217,4.73122c-1.55144,1.23257 -3.47869,2.02399 -4.81264,3.48918c-1.73914,1.71677 -3.32927,3.5989 -5.2174,5.1503c-2.41,1.98021 -5.51152,2.97759 -7.98798,4.87403c-1.12393,0.86069 -1.8561,2.17318 -3.003,3.00301c-1.32891,0.96152 -2.82753,1.6864 -4.3436,2.31256c-0.17579,0.0726 -0.35148,-0.47438 -0.46904,-0.32488c-0.82679,1.05143 -0.94236,2.66544 -2.00758,3.47439c-1.6612,1.26155 -3.99087,1.33558 -5.76684,2.42967c-1.01349,0.62437 -1.47308,1.90798 -2.42795,2.61877c-1.92894,1.43587 -4.59958,1.80313 -6.31415,3.48919c-1.93925,1.907 -3.09132,4.61477 -5.29668,6.20654c-1.05255,0.7597 -2.64741,-0.01781 -3.87245,0.4115c-0.28431,0.09964 0.3378,0.64619 0.16012,0.88947c-1.85878,2.54504 -4.25015,4.69285 -6.7189,6.6518c-1.82268,1.4463 -3.75083,2.77902 -5.79211,3.89579c-1.24716,0.68231 -2.90149,0.56882 -4.0055,1.46442c-0.86913,0.70506 -0.66942,2.25457 -1.5015,3.003c-2.47031,2.22197 -7.61699,4.2495 -10.66021,5.59789c-5.40591,0 -8.25867,4.71922 -13.26096,6.91267c-6.06223,2.65822 -12.12803,5.23849 -18.281,7.62099c-1.52688,0.59123 -2.91115,1.56419 -4.49408,1.98285c-0.96772,0.25595 -2.03188,-0.24278 -3.003,0c-1.08574,0.27143 -1.90171,1.30239 -3.00301,1.5015c-1.88286,0.34042 -3.91816,0.47372 -6.00317,0.50346c0.01443,12.15393 0.38921,24.09641 0.96119,36.28006c0.14454,3.07896 -0.04633,6.18575 0.37198,9.23959c0.22569,1.64767 1.24996,3.10746 1.54351,4.74439c0.26869,1.49827 0.11003,3.04269 0.1259,4.56478c0.10958,10.50772 0,21.02313 0,31.53153c0,4.9595 0.48805,10.97342 -0.26083,15.7536c-0.17322,1.10566 -1.23007,1.91726 -1.5015,3.003c-0.24278,0.97111 0,2.002 0,3.003c-0.5005,1.001 -1.22343,1.91895 -1.5015,3.00301c-0.19286,0.75186 0.28997,1.56413 0.13492,2.32469c-0.19436,0.95342 -2.28912,6.97035 -2.82895,9.42499c0.87499,1.3588 1.45334,3.1551 1.45334,5.52975c0,2.48422 -0.63295,4.33547 -1.57632,5.71504c-0.19095,2.04789 -1.12997,3.96309 -1.49973,5.98675c-0.67426,3.69016 0.07305,8.59321 0.07305,12.32223v3.003c0,0 0,9.75 -9.75,9.75c-9.75,0 -9.75,-9.75 -9.75,-9.75v-3.003c0,-3.09938 -0.28265,-6.53845 -0.26263,-9.85175c-2.04953,0.1091 -5.02427,0.08223 -6.50389,0.08223c-3.04131,0 -8.85235,-0.84298 -11.95173,-0.1259c-2.99234,0.6923 -5.99908,1.54273 -9.06928,1.6274c-5.49854,0 -11.01741,0.06625 -16.51652,0c-1.4819,-0.01785 -2.97943,-0.35107 -4.44423,-0.1259c-1.56435,0.24047 -2.94021,1.26068 -4.5045,1.50151c-2.47337,0.38078 -5.06941,-0.56408 -7.50751,0c-1.54199,0.35676 -2.93597,1.29005 -4.5045,1.5015c-14.56977,1.96407 -29.81392,-1.4041 -44.41415,0.10137c-3.52041,0.363 -6.98586,1.18239 -10.51051,1.5015c-6.83501,0.61881 -13.72183,0.65001 -20.53742,1.455c-3.6753,0.4341 -7.29966,1.33042 -10.99411,1.548c-0.49611,0.02922 -20.91773,0.02452 -24.7152,0.02452c-50.55055,0 -101.1011,0.00645 -151.65165,0c-22.14398,-0.00282 -44.3895,2.77896 -66.50788,1.49149c-5.51886,-0.32124 -10.99605,-1.20903 -16.51651,-1.50151c-4.17115,-0.22099 -8.35934,0.17495 -12.53094,-0.03743c-7.64628,-0.38928 -14.96539,-3.27695 -22.52252,-4.50451c-2.89666,-0.47053 -5.85095,-0.46314 -8.77642,-0.69472c-2.39381,-2.1033 -5.18566,-3.82575 -7.18145,-6.30991c-4.68235,-5.82812 -2.43698,-6.79727 -3.26883,-13.51865c-0.50693,-4.09598 -2.53999,-7.91083 -3.00301,-12.01201c-0.58019,-5.13909 0.38009,-10.36119 -0.04853,-15.51513c-0.70924,-8.5283 -3.84697,-16.7815 -4.48158,-25.25595c-0.34522,-4.60991 0.2299,-9.25284 -0.02861,-13.86842c-0.32956,-5.88418 -2.31051,-11.57383 -2.94879,-17.43257c-0.98883,-9.07639 -0.09958,-19.06211 -0.07305,-28.21831c0.01565,-5.40213 -0.66616,-10.85496 0.07305,-16.2063c1.3217,-9.56806 4.31217,-17.57614 7.37079,-25.96011c-5.94233,-2.1328 -5.94233,-9.14154 -5.94233,-9.14154l9.75,-11.2515c9.50951,0 19.01902,0 28.52853,0c1.86352,0 11.05675,-0.01524 11.7018,0.07305c2.78934,0.38179 5.5139,1.18274 8.19744,2.03407c0.69603,0.22081 1.14679,1.00172 1.86037,1.1567c0.74248,0.16126 1.50555,-0.22325 2.26441,-0.26083c3.89322,-0.19278 9.08625,-1.00025 12.77493,0.26083c4.5861,-2.29305 9.15552,-1.33333 14.09087,-2.73609c2.07922,-0.59097 3.74295,-2.22357 5.78751,-2.92512c1.95191,-0.66976 4.07051,-0.7857 6.00601,-1.5015c3.3811,-1.25041 6.58746,-3.97914 10.15164,-4.8493c3.14695,-0.76829 7.91098,-0.3664 11.2491,-0.26082c1.74899,0.05532 3.54317,-0.1542 5.24309,0.26082c1.36734,0.33382 6.31601,2.8664 8.12624,3.77151c1.3364,0.6682 2.40816,2.0128 3.88577,2.23449c4.22205,0.63343 7.41475,-1.28286 12.00158,0.48136c1.32126,0.5082 1.7884,2.27584 3.003,3.003c0.30655,0.18353 0.51557,-0.49478 0.77335,-0.74217c12.51252,0 25.02502,0 37.53753,0c5.51973,0 11.6155,0.75949 17.05728,0.04745c6.89606,-0.90233 13.44784,-2.98909 20.48027,-3.05045c0,0 6.17963,0 8.69942,4.91973c2.75926,-0.66803 5.53901,-1.29062 8.35785,-1.61238c5.56357,-0.63504 11.84187,-0.04745 17.47726,-0.04745c2.48277,0 5.02561,0.67353 7.44723,0.1259c3.61568,-0.81765 7.208,-1.91331 10.55025,-3.51675c2.71587,-1.30293 4.66576,-3.96295 7.44782,-5.11782c1.88004,-0.78043 4.05748,-0.33355 6.08623,-0.50033c0,0 4.22893,0 7.11656,2.78512c1.58319,-0.13477 3.29569,0.24206 4.89545,0.21788c6.00532,-0.09078 12.01327,-0.12283 18.01802,0c10.30545,0.2108 18.44811,7.55697 27.75518,11.25269c2.94198,1.16823 6.06782,1.83278 9.00901,3.003c0.98664,0.39255 4.01009,2.20652 5.33812,2.38673c1.71249,0.23238 3.51883,-0.33174 5.18282,0.13493c2.15515,0.60442 3.88256,2.29519 6.00601,3.00301c0.94964,0.31654 2.03528,-0.25595 3.003,0c1.58293,0.41866 2.99605,1.3219 4.49408,1.98285c3.41721,1.29543 4.43192,0.10479 8.34113,0.88522c2.86567,0.5721 5.41394,2.2127 8.18582,3.13793c1.9704,0.6577 4.16554,-0.45965 6.22816,-0.21337c2.53406,0.30257 4.97725,1.16859 7.5075,1.5015c2.90478,0.38219 5.92174,-0.39895 8.78686,0.21337c1.09444,0.2339 1.91366,1.24492 3.003,1.5015c1.71113,0.40303 3.50946,-0.26082 5.26741,-0.26082c5.50551,0 11.01101,0 16.51652,0c2.66674,0 7.86152,-0.10966 9.73717,0.74218c1.37624,0.62502 2.51137,1.6351 3.61005,2.70336c0.6082,0.16862 1.26802,0.4015 1.9305,0.72311c3.67985,0.73283 7.36585,1.37912 11.09825,1.61762c4.71193,0.30109 9.44303,-0.03716 14.16457,-0.03716c2.2973,0 6.09682,0.77279 8.27042,0.26082c1.08934,-0.25658 1.91726,-1.23007 3.003,-1.5015c0.97111,-0.24278 2.02662,0.22062 3.003,0c0.59302,-0.13399 0.95122,-0.78514 1.51193,-1.02015c3.42736,-1.4365 6.85192,-2.88099 10.24753,-4.39102c3.09414,-1.37597 6.58666,-1.98801 9.37878,-3.90401c5.01053,-3.43831 8.53826,-7.20134 14.8978,-7.20134c0.29426,-0.24433 0.51662,-0.62245 0.88277,-0.73299c0.18207,-0.05497 0.35633,0.47806 0.46904,0.32487c0.66327,-0.90143 0.62482,-2.30736 1.5015,-3.00301c4.38893,-3.48261 7.41916,-3.5657 11.22341,-6.6518c4.08998,-3.3179 6.68543,-7.77051 11.45924,-10.47675c0.63009,-0.35719 1.57924,0.87769 2.13355,0.4115c0.73747,-0.62024 0.03405,-2.11505 0.70933,-2.80247c2.40696,-2.45023 5.96112,-3.44839 8.70087,-5.51982c1.31006,-0.99049 2.15781,-2.56249 3.57805,-3.38724c0.94907,-0.55113 2.35689,0.07533 3.24217,-0.57333c0.73144,-0.53593 0.32043,-1.92615 0.99542,-2.53162c2.04584,-1.8351 5.04459,-2.31245 7.19937,-4.01833c1.10992,-0.87868 1.86395,-2.16243 3.00301,-3.003c2.18682,-1.61376 4.95795,-2.3728 7.02704,-4.13498c1.37285,-1.16921 2.52774,-2.57247 3.79161,-3.85871c2.1841,-2.09143 4.68284,-3.84311 7.19938,-5.51982c2.40745,-1.60404 3.21908,-4.85145 5.25436,-6.90726c0.65247,-0.65905 1.90766,-0.42853 2.56128,-1.08643c0.78877,-0.79395 0.69768,-2.2243 1.5015,-3.003c1.17151,-1.1349 2.90196,-1.52439 4.19637,-2.51682c1.12343,-0.86134 1.86123,-2.16613 3.00301,-3.003c3.76081,-2.75652 7.96427,-4.87411 12.13733,-6.9544c3.67544,-1.83222 8.13702,-2.5694 11.80244,-4.40508c3.24623,-1.62574 6.06923,-4.20667 9.5511,-5.23511c0.96,-0.28356 2.01934,0.18555 3.003,0c1.95249,-0.3683 6.72393,-4.286 7.85682,-4.9497c3.65048,-2.13865 4.66428,-2.24267 8.67013,-3.57796c1.49802,-0.66095 2.89853,-1.6152 4.49407,-1.98285c3.91611,-0.90237 8.72541,-0.26082 12.7506,-0.26082h3.003c0,0 9.75,0 9.75,9.75zM257.70706,229.65151c-5.2874,2.35797 -10.83927,4.17503 -16.47678,5.49226c-2.45677,0.57404 -5.04502,0.09585 -7.56779,0.12589c-6.04417,0.07199 -12.55397,-0.68816 -18.55877,-0.04745c-5.69018,0.60714 -10.37203,3.43852 -15.91548,4.42606c-1.47823,0.26334 -3.02138,-0.23416 -4.5045,0c-1.17299,0.18519 -2.19381,0.92916 -3.3403,1.23857c-4.48853,1.21133 -8.98031,2.44575 -13.54671,3.31878c-1.62417,0.31052 -3.38665,-0.70519 -4.9572,-0.18777c-1.06295,0.35019 -2.002,1.001 -3.00301,1.5015c-10.75232,0.41581 -21.51093,0.26082 -32.27012,0.26082c-5.74265,0 -12.38642,0.89546 -18.07829,-0.12589c-1.55784,-0.27954 -2.9439,-1.23788 -4.50451,-1.5015c-1.70405,-0.28786 -3.49984,0.2578 -5.18281,-0.13492c-3.75524,-0.87629 -6.95297,-3.58532 -10.50009,-4.98586c-1.47213,-0.58125 -3.0372,-0.90818 -4.5045,-1.5015c-1.59809,-0.64621 -2.82034,-2.20567 -4.51493,-2.52165c-0.76305,-0.14228 -1.56668,0.30196 -2.32469,0.13493c-2.85376,-0.62883 -5.41394,-2.2127 -8.18582,-3.13793c-1.17244,-0.39136 -2.47074,0.18776 -3.70564,0.13493c-1.5015,0.5005 -2.95252,1.19111 -4.5045,1.50151c-0.98156,0.19631 -2.03202,-0.24329 -3.00301,0c-5.82018,1.45833 -7.86668,3.3272 -13.51351,4.5045c-0.75986,0.15842 -1.59076,-0.3876 -2.32468,-0.13493c-2.11639,0.72863 -3.84839,2.40743 -6.00601,3.003c-1.78539,0.49283 -3.72062,-0.08006 -5.55331,0.18777c-2.04192,0.29841 -3.96313,1.20965 -6.00601,1.5015c-1.36427,0.19491 -2.77487,-0.28077 -4.13401,-0.05285c-1.56093,0.26176 -2.94021,1.26068 -4.5045,1.5015c-1.08759,0.16744 -10.95317,0.1259 -12.07229,0.1259c-6.5065,0 -13.01301,0 -19.51952,0c-1.87468,0 -3.74937,0 -5.62405,0c-0.60488,1.23299 -1.22961,2.46439 -1.6154,3.76028c-1.59031,5.34203 -3.36307,10.68537 -4.10462,16.20953c-0.61306,4.56701 0.05831,9.21578 0.07305,13.82373c0.02661,8.31894 -1.01224,17.59277 -0.07305,25.83574c0.21084,1.85053 1.10675,3.56915 1.40878,5.407c0.71886,4.37433 1.37649,8.77181 1.64844,13.19646c0.26908,4.37795 -0.32407,8.78236 -0.02861,13.15861c0.58015,8.59325 3.80398,17.12858 4.52742,25.7951c0.40248,4.82155 -0.57074,9.70484 -0.04852,14.5149c0.44547,4.10312 2.4862,7.91726 3.00301,12.01201c0.16554,1.31166 0.00869,2.63952 -0.1107,3.96286c8.32642,-1.13115 16.17937,3.74606 24.42752,4.04239c3.82858,0.13754 7.66726,-0.23741 11.49309,-0.03744c13.58134,0.7099 26.15872,1.97831 39.79449,1.49624c8.01863,-0.28349 16.00108,-1.39628 24.02402,-1.5015c56.63563,-0.74277 113.33198,-0.00475 169.97391,-0.00475c7.77763,0 15.56862,0.48064 23.33286,0.02453c3.37149,-0.19806 6.67255,-1.06189 10.02691,-1.45499c7.13791,-0.8365 14.34763,-0.89463 21.50462,-1.54801c3.52441,-0.32175 6.98802,-1.15925 10.51051,-1.5015c10.57015,-1.02701 21.58978,-0.02453 32.2227,-0.02453c3.48366,0 7.00702,0.65519 10.45024,0.1259c1.56435,-0.24047 2.94666,-1.22196 4.5045,-1.5015c2.46316,-0.44199 5.04663,0.45456 7.5075,0c1.5564,-0.28749 2.93597,-1.29006 4.50451,-1.5015c7.64854,-1.03106 16.34431,-0.1259 24.0843,-0.1259c2.02654,0.17703 3.94345,-1.01632 5.94573,-1.37561c1.49824,-0.26884 3.04276,-0.10476 4.56478,-0.1259c3.50317,-0.04863 7.007,0 10.51051,0c1.25831,0 2.57079,0.65456 3.76592,0.26082c1.06295,-0.35019 1.91674,-1.23218 3.00301,-1.5015c0.48098,-0.11925 1.00072,0.08275 1.50314,0.18574c0.01637,-0.29928 0.03895,-0.59825 0.06901,-0.89686c0.37736,-3.74838 2.33263,-7.18375 3.05585,-10.881c0.23573,-1.20509 -0.15707,-2.48861 0.13493,-3.68131c0.26612,-1.08705 1.001,-2.002 1.5015,-3.003c0,-1.001 -0.24278,-2.03189 0,-3.00301c0.27143,-1.08574 1.29973,-1.90218 1.5015,-3.003c0.55606,-3.03376 -0.26082,-8.18677 -0.26082,-11.27342c0,-6.50651 0,-13.01301 0,-19.51952c0,-4.16474 1.03371,-9.56909 0.12589,-13.45324c-0.34195,-1.46305 -1.26166,-2.77522 -1.45949,-4.26461c-1.88759,-14.21121 -1.75746,-28.80743 -1.68904,-43.20718c-5.86112,-0.14797 -11.72378,-0.35978 -17.56761,0.03141c-4.68079,0.31333 -9.07672,2.55544 -13.74406,3.0286c-4.55042,0.46131 -13.39646,0.81661 -18.21585,-0.21337c-1.09444,-0.2339 -1.91366,-1.24492 -3.003,-1.5015c-0.73955,-0.17419 -1.50519,0.23157 -2.26442,0.26083c-2.50065,0.09636 -5.005,0 -7.5075,0c-10.24853,0 -20.53172,0.24842 -30.76862,-0.26083c-4.19388,-1.92456 -8.98998,-2.09186 -13.51351,-3.003c-2.87904,-0.5799 -5.45872,-2.25416 -8.33069,-2.86808c-1.69797,-0.36296 -3.59066,0.09992 -5.17239,-0.61628c-1.74849,-0.7917 -2.76747,-2.70392 -4.39772,-3.71698c-2.25107,-1.39886 -5.15531,-1.30034 -7.6143,-2.28902c-3.10931,-1.25015 -5.91835,-3.22319 -9.00901,-4.5045c-1.94036,-0.80443 -4.11416,-1.10837 -5.89922,-2.21548c-1.03897,-0.64438 -6.36334,-5.95871 -7.77441,-7.40556c-1.22463,-1.25568 -2.71578,-2.31313 -3.72091,-3.73838c-3.30966,-1.31302 -6.36321,-3.23637 -9.63248,-4.65859c-4.26903,-1.85715 -8.88298,-2.80063 -13.40673,-3.71698c-0.61599,-1.57469 -1.54164,-3.12166 -2.47176,-4.66824c-0.69171,0.70565 -1.63299,1.44612 -2.89233,2.00773zM-6.09024,392.83082c-0.00255,0.03949 -0.005,0.07896 -0.00733,0.11843c-0.00429,0.07254 0.0074,-0.00617 0.00733,-0.11843zM358.01382,251.62205c-0.90673,-0.14374 -1.8365,-0.05549 -2.76653,0.03496c0.26068,0.12859 0.51921,0.26486 0.77542,0.40951c0.62403,-0.21334 1.29301,-0.35498 1.99111,-0.44447zM340.21733,248.19994c-1.76921,-0.80386 -3.32349,-2.13574 -5.19131,-2.68059c-1.18036,-0.34431 -2.47386,0.3199 -3.68833,0.15712c0.16483,0.34182 0.3524,0.66114 0.65058,0.8654c0.28508,0.19529 0.49373,-0.67869 0.83361,-0.61628c2.06914,0.37997 4.0246,1.22766 6.02595,1.87594c0.45358,0.14693 0.91033,0.27874 1.3695,0.39841z"/></g></g></svg>