<svg version="1.1" xmlns="http://www.w3.org/2000/svg" xmlns:xlink="http://www.w3.org/1999/xlink" width="547" height="328.01646" viewBox="0,0,547,328.01646"><defs><linearGradient x1="239.27344" y1="-8.87109" x2="239.27344" y2="83.12891" gradientUnits="userSpaceOnUse" id="color-1"><stop offset="0" stop-color="#66fff1"/><stop offset="1" stop-color="#66fff1" stop-opacity="0"/></linearGradient><radialGradient cx="48.52561" cy="73.42421" r="70.59058" gradientUnits="userSpaceOnUse" id="color-2"><stop offset="0" stop-color="#ff0000"/><stop offset="1" stop-color="#ff0000" stop-opacity="0"/></radialGradient></defs><g transform="translate(34.22656,8.87109)"><g data-paper-data="{&quot;isPaintingLayer&quot;:true}" fill-rule="nonzero" stroke-linecap="butt" stroke-linejoin="miter" stroke-miterlimit="10" stroke-dasharray="" stroke-dashoffset="0" style="mix-blend-mode: normal"><path d="M-34.22656,83.12891v-92h547v92z" fill="url(#color-1)" stroke="none" stroke-width="0"/><path d="M374.80732,180c0,69.94431 -60.35529,126.64537 -134.8073,126.64537c-74.45201,0 -134.80733,-56.70106 -134.80733,-126.64537c0,-69.94431 60.35532,-126.64536 134.80733,-126.64536c74.45201,0 134.8073,56.70106 134.8073,126.64537z" fill="none" stroke="#ff0000" stroke-width="25"/><path d="M55.66128,88.71492c16.81699,-17.89344 13.6513,-11.54868 13.6513,-11.54868c0,0 1.51747,20.32704 2.06006,23.81869c0.65407,4.20904 -0.47758,8.51269 -0.80909,12.76202c-0.36213,4.64181 -1.60601,22.86221 -2.04368,23.81725c-0.85304,2.47706 -2.61404,6.43327 -2.61404,6.43327c0,0 -6.18231,0.1289 -8.09598,-0.31691c-5.89255,-0.05341 -48.69571,-11.38082 -48.69571,-11.38082c0,0 16.46543,-17.82042 18.48905,-19.44845c-4.37358,-8.59573 -5.61694,-18.55076 -5.65578,-28.20951c-0.00807,-2.00577 -2.25099,-23.62596 -1.72701,-24.439c0.31964,-0.49597 9.44455,-28.56041 9.44455,-28.56041c35.03816,-41.07837 52.93963,-26.17273 55.61172,-26.17273c5.34417,0 0.98631,13.22377 0.97684,13.32886c-0.16162,1.79457 -40.57696,10.45387 -47.1001,34.02492c-5.56185,20.09748 4.303,43.89207 4.4249,44.36463c2.48719,-2.64681 -1.67278,7.2602 12.08296,-8.47311z" fill="#ff0000" stroke="url(#color-2)" stroke-width="5"/></g></g></svg>