<svg version="1.1" xmlns="http://www.w3.org/2000/svg" xmlns:xlink="http://www.w3.org/1999/xlink" width="683.33555" height="204.21895" viewBox="0,0,683.33555,204.21895"><g transform="translate(50.05067,-96.25125)"><g data-paper-data="{&quot;isPaintingLayer&quot;:true}" fill="#9966ff" fill-rule="nonzero" stroke="none" stroke-width="0.5" stroke-linecap="butt" stroke-linejoin="miter" stroke-miterlimit="10" stroke-dasharray="" stroke-dashoffset="0" style="mix-blend-mode: normal"><path d="M618.9201,228.52839c2.32301,0.12399 14.36478,1.40949 14.36478,14.73676c0,14.75 -14.75,14.75 -14.75,14.75l-0.63413,-0.05499c0.62882,3.58821 -0.09974,7.92756 -4.4391,12.26691l0.00005,0.00004c-7.50513,7.50513 -15.01027,4.20913 -18.62924,1.77046c-1.39289,-0.2574 -2.75859,-0.60219 -4.05962,-1.15469c-0.31163,-0.13234 -0.67157,-0.43495 -0.992,-0.8001c-1.08849,0 -2.17699,0 -3.26548,0c-1.001,0 -2.01319,0.14923 -3.00301,0c-0.18191,-0.02742 0.55529,-0.46624 0.38585,-0.39458c-1.03075,0.43595 -1.91726,1.23007 -3.003,1.5015c-0.97112,0.24278 -2.05438,-0.31954 -3.00301,0c-1.38559,0.46673 -2.3966,1.72231 -3.75028,2.27481c-2.51768,1.02758 -5.11966,1.90172 -7.7864,2.43382c-2.73635,0.54599 -5.60959,0.60644 -8.3687,0.19046c-0.18191,-0.02742 0.55529,-0.46624 0.38585,-0.39458c-0.10831,0.04581 -9.87064,4.15537 -9.71968,2.54971c-0.65733,0.29883 -1.56293,0.52974 -2.08779,0.79217c-2.57326,1.28663 -6.89482,3.52047 -9.21355,4.16563c-0.33507,0.09323 -0.47519,-0.94485 -0.74728,-0.7282c-0.3499,0.2786 0.32524,1.06107 -0.02311,1.3416c-1.61207,1.29818 -9.65292,4.93322 -11.24162,5.39261c-0.96161,0.27805 -2.03189,-0.24278 -3.00301,0c-1.08574,0.27143 -1.91726,1.23007 -3.003,1.5015c-0.97112,0.24278 -2.03189,-0.24278 -3.003,0c-1.08574,0.27143 -1.90597,1.2801 -3.003,1.5015c-0.86569,0.17471 -3.3531,0.31267 -5.88719,0.38175l-2.91728,1.45864l-0.70533,-1.41065c-0.13464,-0.00045 -0.2665,-0.00123 -0.39522,-0.00234l-2.107,2.5756c-1.22444,0.04434 -2.45021,0.13992 -3.67596,0.23492c-2.37261,1.53069 -4.67483,1.93181 -6.91069,1.67419c-6.17928,3.01481 -7.53463,2.86861 -13.82323,2.98996c-9.82042,0.1895 -21.56382,1.41717 -30.89122,-1.69196c-5.59567,0.49759 -12.53296,0.8161 -18.01801,0c-1.56549,-0.23293 -2.9388,-1.27002 -4.5045,-1.5015c-2.31983,-0.34297 -4.72028,0.18882 -7.03217,-0.20412c-1.10333,-0.18752 -1.90558,-1.28202 -3.003,-1.5015c-1.47235,-0.29447 -3.04737,0.3623 -4.50451,0c-2.18606,-0.54353 -4.15797,-1.73612 -6.21055,-2.66413c-1.01977,-0.46105 -2.06793,-0.88656 -3.003,-1.5015c-0.11024,-0.0725 0.33553,-0.32302 0.20454,-0.33888c-0.99374,-0.12034 -2.04139,0.27805 -3.003,0c-7.20326,-2.08284 -14.56473,-6.7127 -21.22556,-10.17163c-3.90368,-2.02716 -7.92677,-4.12267 -11.03708,-7.23298c-4.39324,-2.19662 -7.5473,-3.09779 -10.51226,-7.1203c-0.53666,0.04534 -1.06176,0.01203 -1.52286,-0.22732c-2.2444,-1.16503 -3.85255,-3.30195 -5.9829,-4.6644c-1.88565,-1.20595 -4.14362,-1.76141 -6.00601,-3.00301c-1.17787,-0.78525 -1.91045,-2.10281 -3.003,-3.003c-1.12072,-0.92339 -2.6791,-1.12661 -3.97793,-1.77603c-4.704,-2.352 -9.77498,-3.80309 -14.32053,-6.44138c-5.54104,-3.21608 -10.6881,-7.18994 -16.55388,-9.76655c-4.24979,-1.86677 -8.87322,-2.74732 -13.21882,-4.37867c-3.01662,-1.13244 -5.51166,-3.3441 -8.34336,-4.88158c-2.48796,-1.35084 -5.42918,-1.90251 -7.6883,-3.60871c-1.53523,-1.15948 -1.82138,-4.3753 -3.7452,-4.39153c-1.78706,-1.06706 -3.83038,-1.7909 -5.36117,-3.20118c-1.3272,-1.22271 -1.72312,-3.23234 -3.00301,-4.5045c-1.00337,-0.99731 -2.73361,-1.07008 -3.67124,-2.12943c-1.99593,-2.25502 -2.62404,-5.48718 -4.539,-7.81136c-0.90018,-1.09256 -2.18603,-1.84691 -3.00301,-3.003c-0.23049,-0.32616 0.32999,-0.92897 0.0345,-1.19765c-0.82803,-0.7529 -2.24426,-0.67881 -3.00301,-1.5015c-2.35652,-2.5551 -3.15647,-6.36824 -5.71261,-8.72365c-1.07345,-0.98916 -2.57576,-1.40431 -3.71941,-2.3114c-2.85198,-2.26205 -5.37693,-4.69416 -8.28215,-6.94849c-2.54571,-1.97536 -5.69214,-3.08369 -8.23437,-5.06353c-0.87832,-0.68401 -1.39714,-1.76084 -2.27614,-2.44398c-2.5442,-1.97731 -5.69214,-3.08369 -8.23437,-5.06353c-1.35165,-1.05264 -2.46655,-2.51984 -4.05809,-3.15388c-5.46232,-3.60613 -10.98397,-7.07243 -16.51651,-10.51051c-1.0808,-0.67164 -1.89398,-1.7811 -3.06825,-2.27134c-2.0282,-0.84673 -4.41492,-0.68385 -6.37798,-1.67226c-2.71094,-1.36496 -4.89942,-3.58697 -7.4214,-5.27573c-3.72363,-2.49341 -8.32941,-3.33793 -12.33388,-5.34958c-3.25641,-1.63586 -6.12004,-4.0092 -9.43492,-5.52305c-1.75404,-0.80104 -3.80185,-0.72367 -5.62415,-1.35418c-0.68596,-0.23734 -6.24883,-3.0158 -7.48495,-3.64401c-0.68707,-0.34918 -1.36178,-0.72251 -2.05118,-1.06708c-0.08695,-0.04345 -0.20732,-0.07894 -0.33962,-0.11128c-0.14814,0.0337 -0.28524,0.06896 -0.38323,0.11128c-1.74794,0.75483 -3.39157,1.85714 -5.25873,2.2297c-4.78203,0.95418 -10.46972,0.39457 -15.40087,0.39457c-5.14762,0 -11.20224,-0.91133 -16.21582,-0.11051c-2.03778,0.3255 -3.96496,1.19716 -6.00601,1.5015c-2.78229,0.41486 -4.49899,-0.59491 -6.66813,0.48924c-2.87093,1.43491 -4.78773,2.72669 -8.26174,3.73121c-0.96161,0.27805 -2.03189,-0.24278 -3.003,0c-0.16685,0.04171 -0.32737,0.11093 -0.48355,0.19746c0.09962,0.13796 0.12455,0.27702 0.01701,0.38144c-1.70809,1.65856 -4.03812,2.52403 -6.02941,3.8291c-2.69681,1.76746 -5.34292,3.61133 -8.03379,5.38782c-4.78309,3.15774 -9.18516,7.01005 -14.38778,9.41463c-1.5982,0.73867 -3.41331,0.67242 -5.21731,0.64736c-2.54764,1.68123 -5.56776,3.68088 -7.63785,5.45824c-1.94457,1.66959 -3.54188,3.72757 -5.54425,5.32738c-0.87436,0.69858 -2.10768,0.83002 -3.00301,1.50151c-1.13251,0.84938 -1.83574,2.20206 -3.003,3.003c-1.86005,1.27632 -3.90892,2.27555 -5.9829,3.1629c-0.74512,0.31879 -1.66396,0.07057 -2.39456,0.42137c-0.28378,0.13626 -0.11758,0.65133 -0.32771,0.88573c-2.83485,3.16222 -5.96227,6.05039 -9.00901,9.00901c-1.58124,1.53551 -3.06476,3.19068 -4.80835,4.539c-0.88532,0.68462 -2.1414,0.78727 -3.003,1.5015c-5.95444,4.93596 -11.1633,11.49154 -16.7372,16.90503l-2.13706,3.33499c0,0 -8.18183,12.27274 -20.45457,4.09091c-12.27274,-8.18183 -4.09092,-20.45457 -4.09092,-20.45457l3.86895,-5.67401c7.2156,-7.34923 14.40869,-15.53335 22.30184,-22.134c0.85853,-0.71794 2.08903,-0.85562 3.003,-1.5015c5.911,-4.17717 9.60489,-11.66157 15.88496,-15.59629c1.99581,-1.25045 4.92111,-0.80908 6.63757,-2.42173c1.03171,-0.96932 1.8705,-2.15362 3.003,-3.003c0.89533,-0.67149 2.12968,-0.80164 3.003,-1.5015c1.31503,-1.05384 2.18436,-2.58596 3.46476,-3.68163c4.05286,-3.46813 7.68607,-5.76 11.99291,-8.6373c0,0 2.32678,-1.55119 5.6295,-2.28961c2.54074,-1.19932 5.03105,-1.54711 6.2617,-1.64796c1.88381,-1.75269 3.85839,-3.41396 5.93001,-4.93793c3.21719,-2.36671 6.53247,-4.61496 9.98423,-6.62419c0.23808,-0.13859 -0.21493,1.0241 -0.02341,0.82609c1.5313,-1.58321 2.28818,-3.98689 4.1768,-5.12027c2.16859,-1.30139 4.95928,-1.03943 7.36868,-1.80832c1.06618,-0.34024 1.91727,-1.23007 3.00301,-1.5015c0.97111,-0.24278 2.00926,0.12033 3.003,0c0.13098,-0.01586 -0.31735,-0.27045 -0.20454,-0.33888c1.25493,-0.7612 2.57926,-1.42398 3.95482,-1.93592c2.54852,-0.94849 5.11966,-1.90171 7.7864,-2.43381c2.14668,-0.42834 4.41716,0.33489 6.56649,-0.07995c2.02622,-0.39108 3.95985,-1.23361 6.00601,-1.5015c6.39447,-0.83718 13.34906,-0.11052 19.82022,-0.11052c2.5025,0 5.01115,-0.17526 7.50751,0c0.39349,0.02763 0.7291,0.47317 1.11565,0.39458c0.35127,-0.07141 0.41173,-0.6472 0.74728,-0.7733c5.78108,-2.17264 9.29618,-3.40934 15.51478,-2.43382c6.44314,1.01074 10.46399,4.89088 16.26828,6.73174c2.09617,0.66482 4.38455,0.7418 6.38787,1.64881c4.03244,1.8257 7.62345,4.51635 11.5861,6.48897c1.42034,0.70705 11.64547,4.63939 14.69314,6.66244c1.64326,1.0908 2.82317,2.8579 4.59061,3.73327c1.72922,0.85644 3.86622,0.55711 5.63404,1.33075c2.14284,0.93776 3.92221,2.55289 5.94076,3.73466c5.64093,3.3025 11.08569,6.84003 16.51651,10.51051c2.89335,1.5707 5.41997,3.7533 7.95392,5.85513c2.01272,1.66949 4.67471,2.39523 6.78064,3.94548c1.3845,1.01917 2.40665,2.46447 3.72986,3.56203c2.01272,1.66949 4.67138,2.39977 6.78065,3.94547c3.41823,2.50493 6.40657,5.38794 9.73587,8.06654c1.6757,1.34819 3.79698,2.14616 5.28959,3.6946c2.61953,2.7175 4.79753,5.8422 6.91518,8.96667c0.13045,0.19248 -0.80034,0.18629 -0.61577,0.32771c0.88835,0.6807 2.22908,0.69307 3.003,1.5015c1.31099,1.36945 1.87778,3.30865 3.0375,4.80835c1.86206,2.40795 4.25676,4.57933 5.46339,7.35073c0.50713,0.13524 0.98583,0.36827 1.34138,0.72651c1.32522,1.33523 1.84961,4.85896 3.64784,4.30633c2.71961,1.99962 5.67687,3.71092 8.15884,5.99884c0.39832,0.36719 -0.33353,1.30769 0.10798,1.62165c0.3947,0.28068 0.8755,-0.79638 1.32072,-0.60571c2.40388,1.0295 4.20309,3.26447 6.67165,4.12743c4.58268,1.60202 9.37935,2.64222 13.80821,4.63034c6.842,3.07138 13.14855,7.23803 19.48216,11.25447c1.64767,1.04486 4.2321,1.51695 5.74867,2.13321c3.35778,1.36443 6.74698,3.24683 9.96083,4.93893c1.68809,0.88879 3.47801,1.62052 5.03108,2.72848c1.15243,0.82214 1.82513,2.21775 3.00301,3.003c1.86239,1.24159 4.19006,1.69443 6.006,3.00301c0.36287,0.26148 -0.38578,1.16033 0.02311,1.3416c0.9151,0.40571 2.13507,-0.49869 3.003,0c3.41408,1.96165 5.64018,5.59133 8.9859,7.66741c1.9019,1.18016 4.00401,2.002 6.00601,3.003c4.39837,4.39837 10.43062,6.50387 15.98994,9.28354c2.002,1.001 4.13587,1.77312 6.00601,3.003c0.11024,0.0725 -0.33553,0.32302 -0.20454,0.33888c0.99374,0.12034 2.04139,-0.27805 3.003,0c2.16397,0.62572 4.15798,1.73612 6.21055,2.66413c1.01977,0.46105 2.06793,0.88656 3.003,1.5015c0.11024,0.0725 -0.33607,0.32851 -0.20454,0.33888c1.49686,0.11797 3.03216,-0.29447 4.5045,0c1.09742,0.21949 1.89835,1.32197 3.00301,1.5015c1.63982,0.2665 3.33382,-0.42928 4.97983,-0.20412c1.26479,0.17301 2.40954,0.84447 3.61984,1.25848c4.36966,-4.46751 11.022,-4.46751 11.022,-4.46751c5.12413,0 10.25475,0.26204 15.37445,0.09973c0.11562,-0.05861 0.23211,-0.11574 0.34946,-0.17137l2.7172,-1.3586l0.17162,0.34324c0.71334,-0.16945 1.44675,-0.28709 2.19602,-0.34874l0.8399,-1.15713c4.71503,-0.29107 10.33576,-0.87707 15.37507,-0.46665c1.43365,-0.12194 2.86614,-0.17751 4.29715,-0.18124c2.00842,-1.22165 4.93082,-2.10657 6.13679,-2.70955c5.81142,-2.90571 11.98277,-6.86588 18.22256,-8.67013c0.96161,-0.27805 2.02263,0.20215 3.003,0c0.35107,-0.07239 0.41174,-0.6472 0.74728,-0.7733c2.54548,-0.95664 5.10765,-1.96596 7.7864,-2.43382c1.63657,-0.28584 3.31989,0.13608 4.97984,0.20412c1.11334,-1.15211 2.98369,-1.17971 4.41593,-1.89773c1.30328,-0.65337 2.33231,-1.75868 3.58152,-2.51028c2.22168,-1.33669 5.70103,-2.23153 7.78795,-3.7129c2.06207,-1.46373 3.74051,-3.4955 5.9829,-4.6644c0.41426,-0.21595 0.52879,1.37263 0.89305,1.08012c0.87262,-0.70074 0.51775,-2.4694 1.5015,-3.003c2.22313,-1.20586 4.95928,-1.03943 7.36868,-1.80832c1.06618,-0.34024 1.90482,-1.28588 3.003,-1.5015c1.99451,-0.39161 4.07848,-0.00022 6.09116,-0.28406c4.08679,-0.57635 7.92344,-2.43943 12.01201,-3.003c0.99259,-0.13682 9.07122,-0.11051 10.81121,-0.11051c6.79784,0 13.58663,-0.0507 20.38071,0.19046c3.32536,1.00798 6.66919,1.95991 10.03454,2.82578z"/></g></g></svg>