<svg version="1.1" xmlns="http://www.w3.org/2000/svg" xmlns:xlink="http://www.w3.org/1999/xlink" width="1623.12312" height="1135.72448" viewBox="0,0,1623.12312,1135.72448"><defs><radialGradient cx="240" cy="180" r="239.5" gradientUnits="userSpaceOnUse" id="color-1"><stop offset="0" stop-color="#4000ff"/><stop offset="1" stop-color="#4000ff" stop-opacity="0"/></radialGradient><radialGradient cx="240" cy="183.41404" r="360.75075" gradientUnits="userSpaceOnUse" id="color-2"><stop offset="0" stop-color="#3f00ff" stop-opacity="0"/><stop offset="1" stop-color="#3f00ff"/></radialGradient><radialGradient cx="242.61261" cy="186.61787" r="696.6967" gradientUnits="userSpaceOnUse" id="color-3"><stop offset="0" stop-color="#020031" stop-opacity="0"/><stop offset="1" stop-color="#020031"/></radialGradient><radialGradient cx="225" cy="185.5" r="224.34645" gradientTransform="translate(-0.74285,-189.32573) scale(1.13663,1.08282)" gradientUnits="userSpaceOnUse" id="color-4"><stop offset="0" stop-color="#ffdd00"/><stop offset="1" stop-color="#ffdd00"/></radialGradient><linearGradient x1="225" y1="142.87983" x2="225" y2="228.12017" gradientTransform="translate(-0.74285,-189.32573) scale(1.13663,1.08282)" gradientUnits="userSpaceOnUse" id="color-5"><stop offset="0" stop-color="#9000ff"/><stop offset="1" stop-color="#00ffff"/></linearGradient><radialGradient cx="224.49399" cy="183.49251" r="224.34645" gradientTransform="translate(-0.1677,-187.15175) scale(1.13663,1.08282)" gradientUnits="userSpaceOnUse" id="color-6"><stop offset="0" stop-color="#ffdd00"/><stop offset="1" stop-color="#ff6c00"/></radialGradient><linearGradient x1="224.49399" y1="140.87232" x2="224.49399" y2="226.11266" gradientTransform="translate(-0.1677,-187.15175) scale(1.13663,1.08282)" gradientUnits="userSpaceOnUse" id="color-7"><stop offset="0" stop-color="#9000ff"/><stop offset="1" stop-color="#00ffff"/></linearGradient></defs><g transform="translate(490.72585,381.24437)"><g data-paper-data="{&quot;isPaintingLayer&quot;:true}" fill-rule="nonzero" stroke-linecap="butt" stroke-linejoin="miter" stroke-miterlimit="10" stroke-dasharray="" stroke-dashoffset="0" style="mix-blend-mode: normal"><path d="M-20.5,387.85173v-400h536v400z" fill="#7f0000" stroke="#000000" stroke-width="0.5"/><path d="M0.5,359v-358h479v358z" fill="url(#color-1)" stroke="#000000" stroke-width="0.5"/><path d="M-120.75075,453.46966v-540.11125h721.5015v540.11125z" fill="url(#color-2)" stroke="none" stroke-width="0"/><path d="M-454.08408,729.4801v-1085.72448h1393.39339v1085.72448z" fill="url(#color-3)" stroke="#9300ff" stroke-width="50"/><path d="M-0.49549,44.31307v-109.60961h481.48649v109.60961c0,0 -154.01993,-15.01502 -232.6283,-15.01502c-81.76297,0 -248.85819,15.01502 -248.85819,15.01502z" fill="#9300ff" stroke="none" stroke-width="0"/><text transform="translate(0.65355,174.84496) scale(0.87979,0.92351)" font-size="40" xml:space="preserve" fill="url(#color-4)" fill-rule="nonzero" stroke="url(#color-5)" stroke-width="9" stroke-linecap="butt" stroke-linejoin="miter" stroke-miterlimit="10" stroke-dasharray="" stroke-dashoffset="0" font-family="Pixel" font-weight="normal" text-anchor="start" style="mix-blend-mode: normal"><tspan x="0" dy="0">        This Is Not The End...</tspan><tspan x="0" dy="46.15px">           More coming soon</tspan></text><path d="M-462.19733,598.91892v-346.84684c0,0 449.18131,91.59159 698.29861,91.59159c279.01772,0 896.29599,-91.59159 896.29599,-91.59159v346.84685z" fill="#9300ff" stroke="none" stroke-width="0"/><path d="M-490.72585,450.75075v-147.62763c0,0 452.18431,26.20231 701.30161,26.20231c279.01772,0 893.29299,-26.20231 893.29299,-26.20231v147.62763z" fill="#9300ff" stroke="#000000" stroke-width="0"/><text transform="translate(0.14754,172.83745) scale(0.87979,0.92352)" font-size="40" xml:space="preserve" fill="url(#color-6)" fill-rule="nonzero" stroke="url(#color-7)" stroke-width="0" stroke-linecap="butt" stroke-linejoin="miter" stroke-miterlimit="10" stroke-dasharray="" stroke-dashoffset="0" font-family="Pixel" font-weight="normal" text-anchor="start" style="mix-blend-mode: normal"><tspan x="0" dy="0">        This Is Not The End...</tspan><tspan x="0" dy="46.15px">           More coming soon</tspan></text><path d="M-122.6126,430.19895v-469.96997h181.68169c0,0 -19.51952,153.28187 -19.51952,231.23123c0,78.7001 19.51952,238.73874 19.51952,238.73874z" fill="#9300ff" stroke="none" stroke-width="0"/><path d="M432.94296,464.73349c0,0 13.51351,-192.04521 13.51351,-282.28228c0,-83.98887 -13.51351,-241.74174 -13.51351,-241.74174h201.2012v524.02402z" fill="#9300ff" stroke="none" stroke-width="0"/></g></g></svg>