<svg version="1.1" xmlns="http://www.w3.org/2000/svg" xmlns:xlink="http://www.w3.org/1999/xlink" width="649.75387" height="146.96772" viewBox="0,0,649.75387,146.96772"><g transform="translate(23.44231,-184.81243)"><g data-paper-data="{&quot;isPaintingLayer&quot;:true}" fill="#9966ff" fill-rule="nonzero" stroke="none" stroke-width="0.5" stroke-linecap="butt" stroke-linejoin="miter" stroke-miterlimit="10" stroke-dasharray="" stroke-dashoffset="0" style="mix-blend-mode: normal"><path d="M626.31156,313.63364c0,8.78225 -5.22901,12.33549 -9.46025,13.7731c-2.87523,0.9769 -5.28975,0.9769 -5.28975,0.9769c-1.001,0 -3.50351,0 -4.5045,0c-3.7445,-0.34462 -7.56858,2.30101 -11.15082,2.81254c-5.88015,0.83966 -16.38555,0.69013 -22.18291,0.07995c-2.05228,-0.216 -3.95501,-1.27361 -6.006,-1.5015c-2.4872,-0.27636 -5.02031,0.27636 -7.50751,0c-2.05099,-0.22789 -3.95501,-1.27361 -6.006,-1.5015c-2.4872,-0.27636 -5.02031,0.27636 -7.50751,0c-2.05099,-0.22789 -3.97978,-1.11042 -6.006,-1.5015c-2.8504,-0.55016 -5.8053,0.11051 -8.70831,0.11051c-7.00701,0 -14.01401,0 -21.02102,0c-6.55484,0 -12.60516,0.39939 -18.87921,-1.69196c-8.25437,0.43151 -16.94243,-0.80715 -25.12023,0.15335c-8.09345,0.9506 -16.21607,2.49464 -24.42933,1.34814c-2.04564,-0.28555 -3.92854,-1.28583 -5.92766,-1.80517c-5.00235,-1.29953 -7.70726,-1.59132 -13.25531,-1.03976c-7.53679,0.74928 -14.96018,2.58394 -22.52252,3.003c-10.30381,0.57097 -20.64747,0.37366 -30.95881,-0.0394c-2.55001,-0.10215 -4.97852,-1.15906 -7.5075,-1.50151c-3.54408,-0.47989 -7.28455,0.49428 -10.85928,-0.03873c-2.04105,-0.30433 -4.00401,-1.001 -6.00601,-1.5015c-2.78229,-0.33742 -5.70468,-0.07753 -8.34688,-1.01227c-1.33457,-0.47213 -1.79263,-2.26882 -3.003,-3.003c-0.29737,-0.18038 -0.40986,0.81256 -0.74728,0.7282c-1.84712,-0.46178 -3.49413,-1.51464 -5.25872,-2.2297c-2.19354,-0.88889 -4.57416,-1.38206 -6.61446,-2.58162c-1.1961,-0.70323 -2.34616,-1.59221 -3.22731,-2.67389c-1.26792,-0.03956 -2.53581,-0.23748 -3.67175,-0.7505c-1.29016,-0.58267 -1.79264,-2.26882 -3.00301,-3.003c-0.29737,-0.18038 -0.40664,0.79844 -0.74728,0.7282c-1.09609,-0.22602 -1.97225,-1.06555 -3.003,-1.50151c-0.16943,-0.07166 0.56924,0.38004 0.38585,0.39458c-1.48102,0.11744 -2.98361,0.12316 -4.45643,-0.07179c-2.93179,-0.38806 -5.80424,-1.13864 -8.71322,-1.6714c-2.5178,-0.46112 -5.01998,-1.05043 -7.56645,-1.31008c-3.70963,-0.37824 -7.54356,0.47507 -11.18128,-0.34432c-2.29577,-0.51712 -4.14912,-2.48474 -6.48134,-2.79889c-3.65384,-0.49216 -7.27047,-1.33389 -10.7894,-2.43382c-6.34418,-3.10553 -12.65207,-6.28455 -18.96984,-9.44343c-2.52844,-1.26421 -6.42585,-4.31247 -9.2798,-4.63927c-1.83283,-0.20988 -3.72163,0.15745 -5.53067,-0.20412c-1.09745,-0.21934 -1.97225,-1.06555 -3.00301,-1.5015c-0.16943,-0.07166 0.56982,0.39457 0.38585,0.39457c-2.13467,0 -4.32616,0.14368 -6.39186,-0.39457c-6.75786,-1.76088 -12.78134,-7.03296 -18.724,-10.4345c-0.80755,-0.46224 -1.73456,-0.71187 -2.50157,-1.23863c-0.10877,-0.0747 0.33553,-0.32302 0.20454,-0.33888c-0.99374,-0.12034 -2.03458,0.25331 -3.00301,0c-1.65949,-0.43407 -3.1544,-1.34875 -4.73161,-2.02312c-2.3707,-0.61305 -4.89675,-0.41931 -7.28041,-0.97988c-1.08944,-0.2562 -1.90559,-1.28202 -3.00301,-1.50151c-1.47234,-0.29447 -3.04069,0.3343 -4.5045,0c-3.39652,-0.77569 -6.56627,-2.34645 -9.76323,-3.7312c-0.32892,-0.14247 -0.39264,-0.72109 -0.74728,-0.7733c-1.48549,-0.21873 -3.04069,0.3343 -4.50451,0c-4.11628,-0.94007 -7.65028,-3.54444 -11.92686,-4.22044c-1.51402,-0.23932 -3.10446,0.09503 -4.58966,-0.28406c-2.28018,-0.58201 -4.17523,-2.33006 -6.48134,-2.79888c-2.59182,-0.5269 -5.35156,0.49473 -7.93416,-0.07568c-2.63185,-0.58129 -4.84957,-2.55594 -7.50751,-3.003c-3.65229,-0.61431 -7.44013,0.37 -11.11003,-0.12843c-1.69972,-0.23085 -3.10183,-1.48815 -4.7316,-2.02312c-3.49258,-1.14644 -7.10377,-2.13834 -10.28341,-3.98289c-4.66108,0.27353 -8.13329,-2.01683 -12.48735,-2.79888c-0.98524,-0.17696 -2.02238,0.20094 -3.00301,0c-5.07153,-1.03922 -10.04453,-3.16291 -15.01501,-4.50451c-2.07028,-0.5588 -4.35253,0.44528 -6.43265,-0.07568c-4.01047,-1.00442 -7.50625,-3.75532 -11.58537,-4.42882c-3.9335,-0.64945 -7.98004,-1.1964 -11.62526,-2.81089c-1.64999,-0.73078 -2.8973,-2.18239 -4.5045,-3.00301c-4.62994,-2.364 -9.74341,-3.64685 -14.49188,-5.76271c-5.1655,-2.30168 -10.11732,-5.10898 -15.41974,-7.0748c-3.45176,-1.27971 -7.15259,-1.74637 -10.72888,-2.61956c0,0 -14.3096,-3.5774 -10.7322,-17.887c3.5774,-14.3096 17.887,-10.7322 17.887,-10.7322c4.43171,1.12882 9.00117,1.81288 13.29515,3.38645c9.38347,3.43866 18.13647,8.42195 27.40836,12.15102c1.88466,0.75799 3.92034,1.14177 5.74308,2.0385c1.74744,0.85969 2.94692,3.08492 4.89126,3.19511c5.74898,0.32582 10.16264,2.53831 15.44167,4.58019c1.73472,0.67097 3.74872,-0.40459 5.57936,-0.07569c5.05008,0.90731 10.021,3.54527 15.01501,4.50451c0.98303,0.18882 2.02353,-0.20649 3.003,0c3.09736,0.65299 5.87736,2.54171 9.00901,3.00301c1.82512,0.26884 3.68712,0.13607 5.53067,0.20411c4.43793,2.02235 9.12437,3.45277 13.74062,5.02613c0.5072,0.17287 0.74009,0.93921 1.2744,0.97988c3.29441,0.25078 6.65115,-0.6664 9.911,-0.12843c2.65931,0.43886 4.9236,2.23622 7.5075,3.00301c2.26289,0.67152 4.76607,-0.53757 7.08086,-0.07569c2.66673,0.5321 5.24092,1.47718 7.78639,2.43382c0.33554,0.1261 0.39765,0.69424 0.74728,0.7733c0.46966,0.1062 0.94196,-0.36659 1.41635,-0.28406c2.81101,0.48902 5.57998,1.21053 8.32772,1.97921c2.04158,0.57114 4.067,1.22376 6.02517,2.03605c0.3311,0.13735 0.39264,0.72108 0.74728,0.7733c1.48549,0.21873 3.04069,-0.3343 4.5045,0c3.39652,0.77569 6.56628,2.34645 9.76324,3.7312c0.32892,0.14247 0.39264,0.72108 0.74728,0.7733c1.48549,0.21873 3.03216,-0.29447 4.5045,0c1.09742,0.21948 1.92405,1.20427 3.00301,1.5015c0.46422,0.12788 0.94315,-0.37322 1.41635,-0.28406c3.1455,0.59266 6.21417,1.53813 9.32126,2.30719c1.15958,0.8916 2.87224,0.57357 4.27741,0.97988c1.46286,0.42299 7.65282,3.25167 9.71498,4.42849c0.03413,0.01948 8.78945,5.09756 11.68321,7.18857c1.88572,0.00015 3.7853,0.02289 5.62883,0.39495c1.09704,0.22141 1.90562,1.28184 3.00301,1.50151c1.13885,0.22796 2.339,-0.42963 3.47834,-0.20412c2.66755,0.52801 5.23787,1.48533 7.7864,2.43382c9.22022,3.4315 18.29562,8.97121 27.02702,13.51351c1.28848,0.59985 2.83919,0.25644 4.22562,0.56919c2.77983,0.62706 6.00557,0.96514 8.12645,2.81772c0.00501,-0.00293 0.01206,-0.00471 0.02137,-0.00518c2.40454,-0.1211 4.82663,-0.18605 7.22259,0.05026c5.64733,0.55699 11.15031,2.12547 16.75336,3.02453c2.61587,0.41974 5.34446,-0.20133 7.94143,0.32279c1.09704,0.22141 1.92251,1.2099 3.003,1.50151c1.70851,0.4611 3.64595,-0.00018 5.25873,0.7282c1.29016,0.58267 1.79263,2.26882 3.003,3.003c0.29737,0.18038 0.4192,-0.84368 0.74728,-0.7282c2.86481,1.00837 5.6443,2.31204 8.23863,3.8911c0.9189,0.5593 1.22206,1.84966 2.13306,2.42173c0.68635,0.43099 1.63702,0.13333 2.39455,0.42138c0.33505,0.12741 0.39952,0.68636 0.74728,0.7733c1.7168,0.4292 3.64595,-0.00018 5.25873,0.7282c1.29016,0.58267 1.75903,2.32733 3.003,3.003c0.35431,0.19245 0.44142,-0.67484 0.66213,-1.01226c2.002,0.5005 3.97978,1.11042 6.00601,1.5015c2.98388,0.57592 7.26737,-0.37691 10.16174,-0.03873c2.53482,0.29616 4.95785,1.39057 7.5075,1.5015c8.69121,0.37813 17.41581,0.5039 26.09825,-0.0394c7.55916,-0.47301 14.97488,-2.37226 22.52252,-3.003c9.37154,-0.78316 14.06204,-0.14312 22.78072,1.96325c1.07117,0.25878 1.99151,1.03457 3.08134,1.19783c5.23153,0.7837 13.05947,-1.17366 17.61272,-1.65485c10.29285,-1.08775 21.61289,-0.08161 31.93683,0.15335c4.98567,1.66189 8.80826,1.31104 14.15382,1.31104c9.50782,0 19.02107,-0.08533 28.52853,0c3.64343,0.0327 7.18992,1.20965 10.81121,1.61201c2.4872,0.27636 5.02031,-0.27636 7.50751,0c2.05099,0.22789 3.95501,1.27362 6.006,1.50151c2.4872,0.27636 5.02031,-0.27636 7.50751,0c2.05099,0.22789 3.95679,1.25811 6.006,1.5015c3.37972,0.40142 6.80727,-0.19005 10.20981,-0.11051c1.21577,0.02842 2.43946,0.36261 3.64331,0.19046c0.97573,-0.13953 1.79374,-0.83931 2.74328,-1.10373c4.27023,-1.18914 8.70138,-1.98781 13.13293,-2.08973c1.001,0 2.00201,0 3.00301,0h1.5015c1.86425,0 3.64772,0.34585 5.28975,0.97689c4.23124,1.43761 9.46025,4.99086 9.46025,13.77311z"/></g></g></svg>